<svg width="16" height="18" viewBox="0 0 16 18" fill="none" xmlns="http://www.w3.org/2000/svg">
<path fill-rule="evenodd" clip-rule="evenodd" d="M8.43913 17.6411L14.5101 14.0522C15.2262 13.6165 15.6006 13.1892 15.6006 12.0356V5.58423C15.6006 4.73828 15.2995 4.2085 14.6322 3.80688L9.2041 0.576904C8.26009 0.0300293 7.33236 0.0300293 6.39648 0.576904L0.960286 3.80688C0.301107 4.2085 0 4.73828 0 5.58423V12.0356C0 13.1892 0.374349 13.6165 1.09049 14.0522L7.16146 17.6411C7.59277 17.8975 8.00781 17.8975 8.43913 17.6411ZM11.4176 6.12256L5.54199 2.64478L6.94173 1.81592C7.52767 1.46558 8.06478 1.45703 8.65072 1.81592L13.6475 4.7981L11.4176 6.12256ZM1.94499 4.7981L7.79622 8.25879L10.0993 6.90015L4.24805 3.42236L1.94499 4.7981ZM7.15332 16.0859L1.83105 12.9243C1.39974 12.6594 1.24512 12.3945 1.24512 11.9587V5.93457L7.15332 9.46362V16.0859ZM8.44727 9.46362V16.0859L13.7695 12.9243C14.2008 12.6594 14.3555 12.3945 14.3555 11.9587V5.93457L8.44727 9.46362Z" fill="#509C50"/>
</svg>
