<svg width="25" height="24" viewBox="0 0 25 24" fill="none" xmlns="http://www.w3.org/2000/svg">
<path fill-rule="evenodd" clip-rule="evenodd" d="M20.6909 15.9688C20.6909 16.3984 20.3377 16.7109 19.934 16.7109H8.80351C7.40084 16.7109 6.66419 15.8809 6.46236 14.543L4.94869 4.51367H1.81034C1.38652 4.51367 1.03333 4.17188 1.03333 3.75195C1.03333 3.3418 1.38652 3 1.81034 3H5.13033C6.13945 3 6.422 3.37109 6.52291 4.12305L6.69446 5.23633H22.1844C22.7596 5.23633 23.1128 5.55859 23.1128 6.03711C23.1128 6.125 23.0926 6.27148 23.0724 6.39844L22.3357 11.1934C22.1238 12.5508 21.3973 13.3906 19.9744 13.3906H7.92558L8.07695 14.3574C8.15767 14.8848 8.4705 15.2266 8.99524 15.2266H19.934C20.3377 15.2266 20.6909 15.5391 20.6909 15.9688ZM6.91646 6.71094L7.70357 11.9062L19.823 11.8965C20.3478 11.8965 20.6404 11.5645 20.7211 11.0273L21.367 6.71094H6.91646ZM9.57043 21.252C10.4484 21.252 11.1547 20.5684 11.1547 19.709C11.1547 18.8594 10.4484 18.1758 9.57043 18.1758C8.68241 18.1758 7.97603 18.8594 7.97603 19.709C7.97603 20.5684 8.68241 21.252 9.57043 21.252ZM20.0551 19.709C20.0551 20.5684 19.3488 21.252 18.4607 21.252C17.5828 21.252 16.8663 20.5684 16.8663 19.709C16.8663 18.8594 17.5828 18.1758 18.4607 18.1758C19.3488 18.1758 20.0551 18.8594 20.0551 19.709Z" fill="black"/>
<mask id="mask0_382_104" style="mask-type:luminance" maskUnits="userSpaceOnUse" x="1" y="3" width="23" height="19">
<path fill-rule="evenodd" clip-rule="evenodd" d="M20.6909 15.9688C20.6909 16.3984 20.3377 16.7109 19.934 16.7109H8.80351C7.40084 16.7109 6.66419 15.8809 6.46236 14.543L4.94869 4.51367H1.81034C1.38652 4.51367 1.03333 4.17188 1.03333 3.75195C1.03333 3.3418 1.38652 3 1.81034 3H5.13033C6.13945 3 6.422 3.37109 6.52291 4.12305L6.69446 5.23633H22.1844C22.7596 5.23633 23.1128 5.55859 23.1128 6.03711C23.1128 6.125 23.0926 6.27148 23.0724 6.39844L22.3357 11.1934C22.1238 12.5508 21.3973 13.3906 19.9744 13.3906H7.92558L8.07695 14.3574C8.15767 14.8848 8.4705 15.2266 8.99524 15.2266H19.934C20.3377 15.2266 20.6909 15.5391 20.6909 15.9688ZM6.91646 6.71094L7.70357 11.9062L19.823 11.8965C20.3478 11.8965 20.6404 11.5645 20.7211 11.0273L21.367 6.71094H6.91646ZM9.57043 21.252C10.4484 21.252 11.1547 20.5684 11.1547 19.709C11.1547 18.8594 10.4484 18.1758 9.57043 18.1758C8.68241 18.1758 7.97603 18.8594 7.97603 19.709C7.97603 20.5684 8.68241 21.252 9.57043 21.252ZM20.0551 19.709C20.0551 20.5684 19.3488 21.252 18.4607 21.252C17.5828 21.252 16.8663 20.5684 16.8663 19.709C16.8663 18.8594 17.5828 18.1758 18.4607 18.1758C19.3488 18.1758 20.0551 18.8594 20.0551 19.709Z" fill="white"/>
</mask>
<g mask="url(#mask0_382_104)">
<rect width="24.8" height="24" fill="#4A4A4A"/>
</g>
</svg>
