<svg width="24" height="24" viewBox="0 0 24 24" fill="none" xmlns="http://www.w3.org/2000/svg">
<path fill-rule="evenodd" clip-rule="evenodd" d="M13.7073 21.1336L15.0206 19.829C15.1337 19.7072 15.2467 19.6725 15.4033 19.6725H17.2471C18.8821 19.6725 19.6735 18.8897 19.6735 17.246V15.4022C19.6735 15.2456 19.717 15.1326 19.8301 15.0195L21.1259 13.7063C22.2914 12.5496 22.2914 11.4537 21.1259 10.2883L19.8301 8.98376C19.7083 8.862 19.6735 8.75763 19.6735 8.60109V6.75731C19.6735 5.11356 18.8908 4.33083 17.2471 4.33083H15.4033C15.2467 4.33083 15.1337 4.28734 15.0206 4.17428L13.7073 2.86972C12.5419 1.70431 11.4548 1.71301 10.2894 2.87842L8.98484 4.17428C8.87177 4.28734 8.75871 4.33083 8.60217 4.33083H6.74969C5.10594 4.33083 4.3319 5.09617 4.3319 6.75731V8.60109C4.3319 8.75763 4.28842 8.8707 4.17536 8.98376L2.8708 10.2883C1.70539 11.4537 1.71409 12.5496 2.8708 13.7063L4.17536 15.0195C4.28842 15.1326 4.3319 15.2456 4.3319 15.4022V17.246C4.3319 18.8897 5.11464 19.6725 6.74969 19.6725H8.60217C8.75871 19.6725 8.86308 19.7072 8.98484 19.829L10.2894 21.1336C11.4461 22.2903 12.5506 22.2903 13.7073 21.1336ZM11.3765 19.7246L9.81976 18.1679C9.63712 17.9765 9.44578 17.907 9.19357 17.907H6.98451C6.21917 17.907 6.09741 17.7765 6.09741 17.0199L6.08871 14.8108C6.08871 14.5499 6.01914 14.3672 5.8365 14.1846L4.27103 12.6278C3.73181 12.0799 3.73181 11.9234 4.27103 11.3755L5.8365 9.81868C6.01914 9.63604 6.08871 9.4447 6.08871 9.19249L6.09741 6.98343C6.09741 6.20939 6.21047 6.09633 6.98451 6.09633L9.19357 6.08763C9.44578 6.08763 9.63712 6.01806 9.81976 5.83542L11.3765 4.26995C11.9157 3.73073 12.081 3.73073 12.6289 4.26995L14.1857 5.83542C14.3596 6.01806 14.551 6.08763 14.8119 6.08763L17.0209 6.09633C17.7776 6.09633 17.908 6.21809 17.908 6.98343V9.19249C17.908 9.4447 17.9863 9.63604 18.1689 9.81868L19.7257 11.3755C20.2649 11.9234 20.2649 12.0799 19.7257 12.6278L18.1689 14.1846C17.9863 14.3672 17.908 14.5499 17.908 14.8108V17.0199C17.908 17.7765 17.7776 17.907 17.0209 17.907H14.8119C14.551 17.907 14.3683 17.9765 14.1857 18.1679L12.6289 19.7246C12.081 20.2639 11.9157 20.2639 11.3765 19.7246ZM11.4287 15.8284C11.2548 16.0632 11.0026 16.1762 10.7069 16.1762C10.4285 16.1762 10.2024 16.0719 10.0198 15.8805L7.41067 12.9583C7.27151 12.8105 7.19324 12.6104 7.19324 12.4191C7.19324 11.9321 7.54982 11.5755 8.05425 11.5755C8.32386 11.5755 8.53259 11.6625 8.70653 11.8538L10.6808 14.0541L14.6205 8.44454C14.8119 8.16623 15.0206 8.04448 15.3424 8.04448C15.8468 8.04448 16.2121 8.39236 16.2121 8.862C16.2121 9.03594 16.1338 9.23597 16.0208 9.40122L11.4287 15.8284Z" fill="black"/>
</svg>
