<svg width="36" height="36" viewBox="0 0 36 36" fill="none" xmlns="http://www.w3.org/2000/svg">
<rect width="36" height="36" rx="18" fill="#EDEDED"/>
<path fill-rule="evenodd" clip-rule="evenodd" d="M18.9326 26.2746C18.6155 26.4798 18.2518 26.6756 18 26.6756C17.7482 26.6756 17.3845 26.4798 17.0767 26.2746C12.171 23.1036 9 19.3731 9 15.5959C9 12.2756 11.2943 10 14.2041 10C15.9016 10 17.2259 10.7741 18 11.9212C18.7834 10.7648 20.0984 10 21.8052 10C24.7057 10 27 12.2756 27 15.5959C27 19.3731 23.829 23.1036 18.9326 26.2746ZM17.8415 24.4839C17.9161 24.5399 17.9627 24.5679 18 24.5679C18.0373 24.5679 18.0839 24.5399 18.1585 24.4839C21.8891 22.0031 25.0135 18.6083 25.0135 15.5772C25.0135 13.4135 23.5679 11.9399 21.6373 11.9399C20.0891 11.9399 19.2497 12.8725 18.6622 13.6839C18.401 14.0383 18.2425 14.1689 18 14.1689C17.7575 14.1689 17.5803 14.0383 17.3378 13.6839C16.7782 12.8632 15.9202 11.9399 14.3627 11.9399C12.4321 11.9399 10.9865 13.4135 10.9865 15.5772C10.9865 18.6083 14.1109 22.0031 17.8415 24.4839Z" fill="#4A4A4A"/>
<mask id="mask0_390_564" style="mask-type:luminance" maskUnits="userSpaceOnUse" x="9" y="10" width="18" height="17">
<path fill-rule="evenodd" clip-rule="evenodd" d="M18.9326 26.2746C18.6155 26.4798 18.2518 26.6756 18 26.6756C17.7482 26.6756 17.3845 26.4798 17.0767 26.2746C12.171 23.1036 9 19.3731 9 15.5959C9 12.2756 11.2943 10 14.2041 10C15.9016 10 17.2259 10.7741 18 11.9212C18.7834 10.7648 20.0984 10 21.8052 10C24.7057 10 27 12.2756 27 15.5959C27 19.3731 23.829 23.1036 18.9326 26.2746ZM17.8415 24.4839C17.9161 24.5399 17.9627 24.5679 18 24.5679C18.0373 24.5679 18.0839 24.5399 18.1585 24.4839C21.8891 22.0031 25.0135 18.6083 25.0135 15.5772C25.0135 13.4135 23.5679 11.9399 21.6373 11.9399C20.0891 11.9399 19.2497 12.8725 18.6622 13.6839C18.401 14.0383 18.2425 14.1689 18 14.1689C17.7575 14.1689 17.5803 14.0383 17.3378 13.6839C16.7782 12.8632 15.9202 11.9399 14.3627 11.9399C12.4321 11.9399 10.9865 13.4135 10.9865 15.5772C10.9865 18.6083 14.1109 22.0031 17.8415 24.4839Z" fill="white"/>
</mask>
<g mask="url(#mask0_390_564)">
<rect x="6" y="6" width="24" height="24" fill="#4A4A4A"/>
</g>
</svg>
