<svg width="155" height="38" viewBox="0 0 155 38" fill="none" xmlns="http://www.w3.org/2000/svg">
<path d="M71.0875 29.4199C68.9808 29.4199 67.0875 28.9533 65.4075 28.0199C63.7275 27.0866 62.3942 25.8066 61.4075 24.1799C60.4475 22.5533 59.9675 20.7266 59.9675 18.6999C59.9675 16.6466 60.4475 14.8199 61.4075 13.2199C62.3942 11.5933 63.7275 10.3133 65.4075 9.37994C67.0875 8.41994 68.9808 7.93994 71.0875 7.93994C73.1942 7.93994 75.0742 8.41994 76.7275 9.37994C78.4075 10.3133 79.7275 11.5933 80.6875 13.2199C81.6742 14.8199 82.1675 16.6466 82.1675 18.6999C82.1675 20.7266 81.6742 22.5533 80.6875 24.1799C79.7275 25.8066 78.4075 27.0866 76.7275 28.0199C75.0475 28.9533 73.1675 29.4199 71.0875 29.4199ZM71.0875 24.0199C72.0742 24.0199 72.9275 23.7799 73.6475 23.2999C74.3675 22.8199 74.9275 22.1799 75.3275 21.3799C75.7275 20.5799 75.9275 19.6733 75.9275 18.6599C75.9275 17.6733 75.7275 16.7799 75.3275 15.9799C74.9275 15.1799 74.3675 14.5399 73.6475 14.0599C72.9275 13.5799 72.0742 13.3399 71.0875 13.3399C70.1008 13.3399 69.2342 13.5799 68.4875 14.0599C67.7675 14.5399 67.2075 15.1799 66.8075 15.9799C66.4075 16.7799 66.2075 17.6733 66.2075 18.6599C66.2075 19.6733 66.4075 20.5799 66.8075 21.3799C67.2075 22.1799 67.7675 22.8199 68.4875 23.2999C69.2342 23.7799 70.1008 24.0199 71.0875 24.0199Z" fill="#E32119"/>
<path d="M41.6178 37.0599V31.7399H51.8578C52.2578 31.7399 52.5911 31.6066 52.8578 31.3399C53.1245 31.0999 53.2578 30.7933 53.2578 30.4199V25.8999H53.1378C52.6045 26.5133 52.0311 27.0333 51.4178 27.4599C50.8311 27.8866 50.1645 28.2066 49.4178 28.4199C48.6978 28.6333 47.8845 28.7399 46.9778 28.7399C45.1645 28.7399 43.5378 28.3133 42.0978 27.4599C40.6845 26.5799 39.5645 25.3666 38.7378 23.8199C37.9378 22.2733 37.5378 20.5133 37.5378 18.5399C37.5378 16.5933 37.9511 14.8199 38.7778 13.2199C39.6311 11.6199 40.8711 10.3399 42.4978 9.37994C44.1245 8.41994 46.1111 7.93994 48.4578 7.93994C50.6978 7.93994 52.6311 8.40661 54.2578 9.33994C55.9111 10.2466 57.1911 11.5399 58.0978 13.2199C59.0045 14.8733 59.4578 16.8199 59.4578 19.0599V31.0599C59.4578 32.8999 58.9111 34.3533 57.8178 35.4199C56.7511 36.5133 55.2711 37.0599 53.3778 37.0599H41.6178ZM48.4978 23.5399C49.4578 23.5399 50.2845 23.3266 50.9778 22.8999C51.6711 22.4466 52.2045 21.8466 52.5778 21.0999C52.9511 20.3533 53.1378 19.5266 53.1378 18.6199C53.1378 17.6599 52.9511 16.7799 52.5778 15.9799C52.2045 15.1799 51.6711 14.5533 50.9778 14.0999C50.2845 13.6199 49.4578 13.3799 48.4978 13.3799C47.5645 13.3799 46.7378 13.6066 46.0178 14.0599C45.3245 14.5133 44.7911 15.1266 44.4178 15.8999C44.0445 16.6733 43.8578 17.5399 43.8578 18.4999C43.8578 19.4333 44.0445 20.2866 44.4178 21.0599C44.7911 21.8066 45.3245 22.4066 46.0178 22.8599C46.7378 23.3133 47.5645 23.5399 48.4978 23.5399Z" fill="#E32119"/>
<path d="M26.7359 29.4199C24.6293 29.4199 22.7359 28.9533 21.0559 28.0199C19.3759 27.0866 18.0426 25.8066 17.0559 24.1799C16.0959 22.5533 15.6159 20.7266 15.6159 18.6999C15.6159 16.6466 16.0959 14.8199 17.0559 13.2199C18.0426 11.5933 19.3759 10.3133 21.0559 9.37994C22.7359 8.41994 24.6293 7.93994 26.7359 7.93994C28.8426 7.93994 30.7226 8.41994 32.3759 9.37994C34.0559 10.3133 35.3759 11.5933 36.3359 13.2199C37.3226 14.8199 37.8159 16.6466 37.8159 18.6999C37.8159 20.7266 37.3226 22.5533 36.3359 24.1799C35.3759 25.8066 34.0559 27.0866 32.3759 28.0199C30.6959 28.9533 28.8159 29.4199 26.7359 29.4199ZM26.7359 24.0199C27.7226 24.0199 28.5759 23.7799 29.2959 23.2999C30.0159 22.8199 30.5759 22.1799 30.9759 21.3799C31.3759 20.5799 31.5759 19.6733 31.5759 18.6599C31.5759 17.6733 31.3759 16.7799 30.9759 15.9799C30.5759 15.1799 30.0159 14.5399 29.2959 14.0599C28.5759 13.5799 27.7226 13.3399 26.7359 13.3399C25.7493 13.3399 24.8826 13.5799 24.1359 14.0599C23.4159 14.5399 22.8559 15.1799 22.4559 15.9799C22.0559 16.7799 21.8559 17.6733 21.8559 18.6599C21.8559 19.6733 22.0559 20.5799 22.4559 21.3799C22.8559 22.1799 23.4159 22.8199 24.1359 23.2999C24.8826 23.7799 25.7493 24.0199 26.7359 24.0199Z" fill="#E32119"/>
<path d="M8.68 28.9399C6.94667 28.9399 5.42667 28.5533 4.12 27.7799C2.81333 27.0066 1.8 25.9799 1.08 24.6999C0.36 23.4199 0 22.0066 0 20.4599V0.939941H6.72V20.9399C6.72 21.5799 6.94667 22.1399 7.4 22.6199C7.85333 23.0999 8.41333 23.3399 9.08 23.3399H16.48V28.9399H8.68Z" fill="#E32119"/>
</svg>
