<svg width="20" height="20" viewBox="0 0 20 20" fill="none" xmlns="http://www.w3.org/2000/svg">
<path fill-rule="evenodd" clip-rule="evenodd" d="M18.0363 17.1207C18.0363 17.725 17.5968 18.1919 16.9834 18.1919C16.6905 18.1919 16.4158 18.0912 16.2052 17.8898L12.2044 13.8798C11.1149 14.6396 9.79655 15.0883 8.37748 15.0883C4.67875 15.0883 1.66666 12.067 1.66666 8.37744C1.66666 4.68787 4.67875 1.66663 8.37748 1.66663C12.0671 1.66663 15.0883 4.68787 15.0883 8.37744C15.0883 9.86975 14.5939 11.2522 13.7608 12.3691L17.7342 16.3517C17.9447 16.5623 18.0363 16.8369 18.0363 17.1207ZM3.22306 8.37744C3.22306 11.1973 5.5485 13.5227 8.37748 13.5227C11.1973 13.5227 13.5227 11.1973 13.5227 8.37744C13.5227 5.55762 11.1973 3.23218 8.37748 3.23218C5.5485 3.23218 3.22306 5.55762 3.22306 8.37744Z" fill="black"/>
<mask id="mask0_382_94" style="mask-type:luminance" maskUnits="userSpaceOnUse" x="1" y="1" width="18" height="18">
<path fill-rule="evenodd" clip-rule="evenodd" d="M18.0363 17.1207C18.0363 17.725 17.5968 18.1919 16.9834 18.1919C16.6905 18.1919 16.4158 18.0912 16.2052 17.8898L12.2044 13.8798C11.1149 14.6396 9.79655 15.0883 8.37748 15.0883C4.67875 15.0883 1.66666 12.067 1.66666 8.37744C1.66666 4.68787 4.67875 1.66663 8.37748 1.66663C12.0671 1.66663 15.0883 4.68787 15.0883 8.37744C15.0883 9.86975 14.5939 11.2522 13.7608 12.3691L17.7342 16.3517C17.9447 16.5623 18.0363 16.8369 18.0363 17.1207ZM3.22306 8.37744C3.22306 11.1973 5.5485 13.5227 8.37748 13.5227C11.1973 13.5227 13.5227 11.1973 13.5227 8.37744C13.5227 5.55762 11.1973 3.23218 8.37748 3.23218C5.5485 3.23218 3.22306 5.55762 3.22306 8.37744Z" fill="white"/>
</mask>
<g mask="url(#mask0_382_94)">
<rect x="1.66666" y="1.66663" width="16.6667" height="16.6667" fill="#4A4A4A"/>
</g>
</svg>
